<svg width="137" height="178" viewBox="0 0 137 178" fill="none" xmlns="http://www.w3.org/2000/svg">
<circle cx="19.5" cy="132.5" r="19.5" fill="black"/>
<circle cx="19.5" cy="19.5" r="19.5" transform="matrix(-1 0 0 1 137 113)" fill="black"/>
<rect y="113" width="39" height="21" fill="black"/>
<rect width="39" height="21" transform="matrix(-1 0 0 1 137 113)" fill="black"/>
<circle cx="19.5" cy="113.5" r="19.5" fill="black"/>
<circle cx="19.5" cy="19.5" r="19.5" transform="matrix(-1 0 0 1 137 94)" fill="black"/>
<circle cx="68.5" cy="64.5" r="19.5" fill="black"/>
<circle cx="68.5" cy="19.5" r="19.5" fill="black"/>
<circle cx="20" cy="64.5" r="19" fill="black"/>
<circle cx="19" cy="19" r="19" transform="matrix(-1 0 0 1 136 45.5)" fill="black"/>
<circle cx="68.5" cy="158.5" r="19.5" fill="black"/>
<circle cx="68.5" cy="116.5" r="19.5" fill="black"/>
<rect x="49" y="115" width="39" height="47" fill="black"/>
<rect x="39" y="84" width="10" height="10" fill="black"/>
<rect width="10" height="10" transform="matrix(-1 0 0 1 98 84)" fill="black"/>
<rect x="49" y="65" width="19" height="19" fill="black"/>
<rect x="19" y="94" width="20" height="20" fill="black"/>
<rect width="20" height="20" transform="matrix(-1 0 0 1 118 94)" fill="black"/>
<rect width="19" height="19" transform="matrix(-1 0 0 1 88 65)" fill="black"/>
</svg>
